# xmcd CD database file
# Copyright (C) 1997 Ti Kan
# 
# Track frame offsets:
#     183
#     13878
#     30073
#     44578
#     58565
#     76708
#     96190
#     119975
#     137240
#     156178
# 
# Disc length: 2286 seconds
# 
# Revision: 1
# Processed by: cddbd v1.4b41PL1 Copyright (c) Steve Scherf et al.
# Submitted via: DiscPlay 4.0.4
# 
DISCID=7f08ec0a
DTITLE=Pirates Of The Mississippi - Pirates Of The Mississippi
DYEAR=1900
DGENRE=
TTITLE0=Honky Tonk Blues
TTITLE1=I Take My Comfort In You
TTITLE2=Rollin' Home
TTITLE3=Speak Of The Devil
TTITLE4=Feed Jake
TTITLE5=Talkin' 'Bout Love
TTITLE6=Jolly Roger/Pirates Of The Mississippi
TTITLE7=Down And Out In Birmingham
TTITLE8=Anything Goes
TTITLE9=Redneck Rock N' Roll
EXTD=
EXTT0=
EXTT1=
EXTT2=
EXTT3=
EXTT4=
EXTT5=
EXTT6=
EXTT7=
EXTT8=
EXTT9=
PLAYORDER=
